HIERARCHY
ROOT Bip01
{
  OFFSET 15.7446 31.5610 57.6474
  CHANNELS 6 Xposition Yposition Zposition Zrotation Xrotation Yrotation
  JOINT Bip01_Footsteps
  {
    OFFSET 53.2821 -0.0001 8.1953
    CHANNELS 6 Xposition Yposition Zposition Zrotation Xrotation Yrotation
    End Site
    {
      OFFSET 0 0 0
    }
  }
  JOINT b_Hips
  {
    OFFSET 0.0000 0.0000 0.0000
    CHANNELS 6 Xposition Yposition Zposition Zrotation Xrotation Yrotation
    JOINT b_Spine
    {
      OFFSET 10.4409 -1.6220 0.0000
      CHANNELS 6 Xposition Yposition Zposition Zrotation Xrotation Yrotation
      JOINT b_Spine1
      {
        OFFSET 8.8514 -0.0090 0.0000
        CHANNELS 6 Xposition Yposition Zposition Zrotation Xrotation Yrotation
        JOINT b_Spine2
        {
          OFFSET 11.3035 -0.0088 -0.0000
          CHANNELS 6 Xposition Yposition Zposition Zrotation Xrotation Yrotation
          JOINT b_Spine3
          {
            OFFSET 11.0297 -0.0113 0.0000
            CHANNELS 6 Xposition Yposition Zposition Zrotation Xrotation Yrotation
            JOINT b__Neck
            {
              OFFSET 14.9480 -3.1935 0.0000
              CHANNELS 6 Xposition Yposition Zposition Zrotation Xrotation Yrotation
              JOINT b__Neck1
              {
                OFFSET 5.4958 -0.0043 -0.0000
                CHANNELS 6 Xposition Yposition Zposition Zrotation Xrotation Yrotation
                JOINT b__Neck2
                {
                  OFFSET 5.5266 -0.0049 0.0000
                  CHANNELS 6 Xposition Yposition Zposition Zrotation Xrotation Yrotation
                  JOINT b_Head
                  {
                    OFFSET 6.1093 0.0000 -0.0000
                    CHANNELS 6 Xposition Yposition Zposition Zrotation Xrotation Yrotation
                    JOINT Bip01_HeadNub
                    {
                      OFFSET 28.6688 -0.0000 0.0000
                      CHANNELS 6 Xposition Yposition Zposition Zrotation Xrotation Yrotation
                      End Site
                      {
                        OFFSET 0 0 0
                      }
                    }
                    JOINT Dog_Jaw
                    {
                      OFFSET 0.6075 2.3575 -0.0000
                      CHANNELS 6 Xposition Yposition Zposition Zrotation Xrotation Yrotation
                      End Site
                      {
                        OFFSET 0 0 0
                      }
                    }
                  }
                }
              }
            }
            JOINT b_LeftClav
            {
              OFFSET 10.4683 2.1257 3.5190
              CHANNELS 6 Xposition Yposition Zposition Zrotation Xrotation Yrotation
              JOINT b_LeftArm
              {
                OFFSET 7.3453 0.0000 0.0000
                CHANNELS 6 Xposition Yposition Zposition Zrotation Xrotation Yrotation
                JOINT b_LeftForeArm
                {
                  OFFSET 23.3863 -0.0000 0.0000
                  CHANNELS 6 Xposition Yposition Zposition Zrotation Xrotation Yrotation
                  JOINT b_LeftHand
                  {
                    OFFSET 21.5040 -0.0000 0.0000
                    CHANNELS 6 Xposition Yposition Zposition Zrotation Xrotation Yrotation
                    JOINT b__LeftFinger
                    {
                      OFFSET 1.5926 6.2126 -0.0138
                      CHANNELS 6 Xposition Yposition Zposition Zrotation Xrotation Yrotation
                      JOINT Bip01_L_Finger0Nub
                      {
                        OFFSET 23.3657 0.0000 0.0000
                        CHANNELS 6 Xposition Yposition Zposition Zrotation Xrotation Yrotation
                        End Site
                        {
                          OFFSET 0 0 0
                        }
                      }
                    }
                  }
                }
                JOINT Dog_LeftArmor002
                {
                  OFFSET 4.2035 4.4457 12.7354
                  CHANNELS 6 Xposition Yposition Zposition Zrotation Xrotation Yrotation
                  End Site
                  {
                    OFFSET 0 0 0
                  }
                }
              }
            }
            JOINT b_RightClav
            {
              OFFSET 10.4683 2.1257 -3.5189
              CHANNELS 6 Xposition Yposition Zposition Zrotation Xrotation Yrotation
              JOINT b_RightArm
              {
                OFFSET 7.3453 0.0000 -0.0000
                CHANNELS 6 Xposition Yposition Zposition Zrotation Xrotation Yrotation
                JOINT b_RightForeArm
                {
                  OFFSET 23.3863 0.0000 -0.0000
                  CHANNELS 6 Xposition Yposition Zposition Zrotation Xrotation Yrotation
                  JOINT b_RightHand
                  {
                    OFFSET 21.5040 0.0000 0.0000
                    CHANNELS 6 Xposition Yposition Zposition Zrotation Xrotation Yrotation
                    JOINT b_RightFinger
                    {
                      OFFSET 1.5926 6.2126 0.0138
                      CHANNELS 6 Xposition Yposition Zposition Zrotation Xrotation Yrotation
                      JOINT Bip01_R_Finger0Nub
                      {
                        OFFSET 23.3657 -0.0000 0.0000
                        CHANNELS 6 Xposition Yposition Zposition Zrotation Xrotation Yrotation
                        End Site
                        {
                          OFFSET 0 0 0
                        }
                      }
                    }
                  }
                }
                JOINT Dog_RightArmor002
                {
                  OFFSET 4.2034 4.4457 -12.7351
                  CHANNELS 6 Xposition Yposition Zposition Zrotation Xrotation Yrotation
                  End Site
                  {
                    OFFSET 0 0 0
                  }
                }
              }
            }
          }
        }
      }
    }
    JOINT b_Tail001
    {
      OFFSET -4.7889 3.8598 0.8608
      CHANNELS 6 Xposition Yposition Zposition Zrotation Xrotation Yrotation
      JOINT b_Tail002
      {
        OFFSET 5.0654 0.0000 -0.0000
        CHANNELS 6 Xposition Yposition Zposition Zrotation Xrotation Yrotation
        JOINT b_Tail003
        {
          OFFSET 4.7760 0.0000 -0.0000
          CHANNELS 6 Xposition Yposition Zposition Zrotation Xrotation Yrotation
          JOINT b_Tail004
          {
            OFFSET 4.5284 -0.0000 0.0000
            CHANNELS 6 Xposition Yposition Zposition Zrotation Xrotation Yrotation
            JOINT b_Tail005
            {
              OFFSET 9.7173 -0.0000 -0.0001
              CHANNELS 6 Xposition Yposition Zposition Zrotation Xrotation Yrotation
              JOINT b_Tail006
              {
                OFFSET 8.2617 0.0001 0.0000
                CHANNELS 6 Xposition Yposition Zposition Zrotation Xrotation Yrotation
                JOINT b_Tail007
                {
                  OFFSET 9.7599 -0.0001 0.0000
                  CHANNELS 6 Xposition Yposition Zposition Zrotation Xrotation Yrotation
                  JOINT b_Tail008
                  {
                    OFFSET 11.1530 0.0000 -0.0000
                    CHANNELS 6 Xposition Yposition Zposition Zrotation Xrotation Yrotation
                    JOINT b_Tail009
                    {
                      OFFSET 10.3039 0.0000 0.0000
                      CHANNELS 6 Xposition Yposition Zposition Zrotation Xrotation Yrotation
                      End Site
                      {
                        OFFSET 0 0 0
                      }
                    }
                  }
                }
              }
            }
          }
        }
      }
    }
    JOINT Dog_LeftTail001
    {
      OFFSET -11.9878 -1.7857 10.1900
      CHANNELS 6 Xposition Yposition Zposition Zrotation Xrotation Yrotation
      JOINT Dog_LeftTail002
      {
        OFFSET 8.4424 0.0000 0.0000
        CHANNELS 6 Xposition Yposition Zposition Zrotation Xrotation Yrotation
        JOINT Dog_LeftTail003
        {
          OFFSET 9.9501 0.0000 -0.0000
          CHANNELS 6 Xposition Yposition Zposition Zrotation Xrotation Yrotation
          JOINT Dog_LeftTail004
          {
            OFFSET 9.4342 0.0000 -0.0000
            CHANNELS 6 Xposition Yposition Zposition Zrotation Xrotation Yrotation
            JOINT Dog_LeftTail005
            {
              OFFSET 9.7173 0.0001 0.0001
              CHANNELS 6 Xposition Yposition Zposition Zrotation Xrotation Yrotation
              JOINT Dog_LeftTail006
              {
                OFFSET 8.2618 -0.0000 -0.0000
                CHANNELS 6 Xposition Yposition Zposition Zrotation Xrotation Yrotation
                JOINT Dog_LeftTail007
                {
                  OFFSET 9.7599 0.0000 0.0000
                  CHANNELS 6 Xposition Yposition Zposition Zrotation Xrotation Yrotation
                  JOINT Dog_LeftTail008
                  {
                    OFFSET 11.1529 -0.0001 -0.0001
                    CHANNELS 6 Xposition Yposition Zposition Zrotation Xrotation Yrotation
                    JOINT Dog_LeftTail009
                    {
                      OFFSET 10.3039 -0.0000 0.0000
                      CHANNELS 6 Xposition Yposition Zposition Zrotation Xrotation Yrotation
                      End Site
                      {
                        OFFSET 0 0 0
                      }
                    }
                  }
                }
              }
            }
          }
        }
      }
    }
    JOINT b_LeftLegUpper
    {
      OFFSET -0.0000 0.0000 9.9422
      CHANNELS 6 Xposition Yposition Zposition Zrotation Xrotation Yrotation
      JOINT b_LeftLeg
      {
        OFFSET 25.9795 0.0000 0.0000
        CHANNELS 6 Xposition Yposition Zposition Zrotation Xrotation Yrotation
        JOINT b_LeftLeg1
        {
          OFFSET 21.2087 0.0000 -0.0000
          CHANNELS 6 Xposition Yposition Zposition Zrotation Xrotation Yrotation
          JOINT b_LeftAnkle
          {
            OFFSET 10.4341 -0.0000 0.0000
            CHANNELS 6 Xposition Yposition Zposition Zrotation Xrotation Yrotation
            JOINT b_LeftToe
            {
              OFFSET 5.6676 6.5983 0.0000
              CHANNELS 6 Xposition Yposition Zposition Zrotation Xrotation Yrotation
              JOINT Bip01_L_Toe0Nub
              {
                OFFSET 8.6279 0.0000 -0.0000
                CHANNELS 6 Xposition Yposition Zposition Zrotation Xrotation Yrotation
                End Site
                {
                  OFFSET 0 0 0
                }
              }
            }
            JOINT b_LeftToe002
            {
              OFFSET 5.6741 -2.3619 -0.5306
              CHANNELS 6 Xposition Yposition Zposition Zrotation Xrotation Yrotation
              End Site
              {
                OFFSET 0 0 0
              }
            }
          }
        }
      }
      JOINT Dog_LeftArmor001
      {
        OFFSET -2.6287 -3.4254 -3.1462
        CHANNELS 6 Xposition Yposition Zposition Zrotation Xrotation Yrotation
        End Site
        {
          OFFSET 0 0 0
        }
      }
    }
    JOINT b_RightLegUpper
    {
      OFFSET 0.0000 -0.0000 -9.9422
      CHANNELS 6 Xposition Yposition Zposition Zrotation Xrotation Yrotation
      JOINT b_RightLeg
      {
        OFFSET 25.9795 0.0000 0.0000
        CHANNELS 6 Xposition Yposition Zposition Zrotation Xrotation Yrotation
        JOINT b_RightLeg1
        {
          OFFSET 21.2087 0.0000 0.0000
          CHANNELS 6 Xposition Yposition Zposition Zrotation Xrotation Yrotation
          JOINT b_RightAnkle
          {
            OFFSET 10.4341 -0.0000 -0.0000
            CHANNELS 6 Xposition Yposition Zposition Zrotation Xrotation Yrotation
            JOINT b_RightToe
            {
              OFFSET 5.6676 6.5983 -0.0000
              CHANNELS 6 Xposition Yposition Zposition Zrotation Xrotation Yrotation
              JOINT Bip01_R_Toe0Nub
              {
                OFFSET 8.6279 -0.0000 0.0000
                CHANNELS 6 Xposition Yposition Zposition Zrotation Xrotation Yrotation
                End Site
                {
                  OFFSET 0 0 0
                }
              }
            }
            JOINT b_RightToe002
            {
              OFFSET 5.6741 -2.3620 0.5304
              CHANNELS 6 Xposition Yposition Zposition Zrotation Xrotation Yrotation
              End Site
              {
                OFFSET 0 0 0
              }
            }
          }
        }
      }
      JOINT Dog_RightArmor001
      {
        OFFSET -2.6288 -3.4254 3.1460
        CHANNELS 6 Xposition Yposition Zposition Zrotation Xrotation Yrotation
        End Site
        {
          OFFSET 0 0 0
        }
      }
    }
  }
}
MOTION
Frames: 4
Frame Time: 0.00833333
26.5779 59.6189 146.897 112.502 -74.4024 -145.841 53.2821 -6.35e-05 8.19533 -90 -81.2558 -180 0 0 0 -89.9999 -4.1675e-14 -90 10.4409 -1.622 1.78e-05 -11.1813 1.55748 -5.72252 8.8514 -0.0089989 0 3.52384 1.52675 -12.1152 11.3035 -0.0087814 0 0.514573 -2.80746 -14.8117 11.0297 -0.0113029 0 -0.354849 1.90437 -13.731 14.948 -3.19349 8.6e-06 -54.8382 -13.5526 -42.4364 5.49578 -0.0042877 -1.42109e-14 10.0293 35.1973 -9.94399 5.52657 -0.0048637 -7.10543e-15 2.57698 5.56504 1.37595 6.10934 0 -7.10543e-15 46.8327 -7.42454 -3.13611 28.6688 0 0 -6.36111e-15 0 6.36111e-15 0.607494 2.35752 -7.6e-06 -156.427 -0.000147608 180 10.4683 2.1257 3.51896 -173.333 34.0634 -75.1863 7.34534 7.10543e-15 1.9e-06 -91.7165 -63.9539 -6.03608 23.3863 -1.9e-06 1e-06 -10.5586 -0.376245 -1.33324 21.504 -1.42109e-14 1.42109e-14 -64.6224 -5.08287 3.0203 1.59262 6.21256 -0.0138378 23.5637 -7.83677 8.75681 23.3657 -1.42109e-14 1e-06 1.59028e-15 -3.18055e-15 -8.74653e-15 4.20345 4.44573 12.7354 172.377 0.21838 -87.1877 10.4683 2.12572 -3.51895 168.761 3.02698 106.367 7.34534 -7.10543e-15 -1.9e-06 -93.0871 75.0462 1.30962 23.3863 1.9e-06 0 -36.4548 -5.96354e-16 -2.98177e-15 21.504 3.8e-06 1e-06 -69.2114 6.06634 -0.517702 1.59262 6.21257 0.0138388 5.25739 -11.8542 1.70841 23.3657 3.55271e-15 1e-06 180 1.86361e-15 9.24349e-15 4.20337 4.4457 -12.7351 172.377 -0.218352 87.1876 -4.78895 3.85983 0.86083 163.384 -11.048 -5.40934 5.0654 4.578e-05 -6.84e-06 7.84449 21.7615 10.9032 4.77605 3.648e-06 -6.432e-06 -5.02102 10.1523 -3.84287 4.52841 -1.0992e-05 2.7456e-05 -0 -3.18055e-15 -0 9.71734 -4.2e-05 -5.72e-05 1.59028e-15 -6.36111e-15 3.18055e-15 8.26175 8.01e-05 5.7e-06 -0 0 -0 9.75986 -6.48e-05 2.86e-05 -0 -6.36111e-15 -0 11.153 2.67e-05 -2.1e-05 -1.59028e-15 -3.18055e-15 -3.18055e-15 10.3039 1.14e-05 4.2e-05 -0 0 -0 -11.9878 -1.78568 10.19 170.606 3.62573 1.11034 8.44238 1.53e-05 4.2e-05 -1.76556e-31 -3.18055e-15 -3.18055e-15 9.95005 7.6e-06 -2.86e-05 -4.41391e-32 -1.59028e-15 -1.59028e-15 9.43418 0 -4.58e-05 -4.41391e-32 -1.59028e-15 -1.59028e-15 9.71733 6.87e-05 0.0001106 -4.41391e-32 -1.59028e-15 -1.59028e-15 8.26175 -2.29e-05 -4.77e-05 -4.41391e-32 -1.59028e-15 -1.59028e-15 9.75994 2.86e-05 3.05e-05 -3.97569e-16 -1.59028e-15 -1.59028e-15 11.1529 -7.25e-05 -5.91e-05 -3.97569e-16 -1.59028e-15 1.59028e-15 10.3039 -7.6e-06 0 -3.97569e-16 -1.59028e-15 1.59028e-15 -1.14e-05 1.53e-05 9.94222 -114.783 27.9002 -179.228 25.9795 1e-06 0 -34.713 -0.356186 -1.15715 21.2087 1.9e-06 -1e-06 52.5211 13.1552 -18.6928 10.4341 -1.9e-06 1e-06 -3.83663 -1.95206 4.80675 5.66763 6.59832 0 99.1562 24.3407 -14.8475 8.62785 -7.10543e-15 0 -180 9.54166e-15 -6.36111e-15 5.67414 -2.36194 -0.530567 -75.8081 4.38708 5.33411 -2.62874 -3.42539 -3.14618 29.7499 1.82752 90.2264 1.53e-05 -1.53e-05 -9.94222 -111.983 -18.3034 174.011 25.9795 -7.10543e-15 1e-06 -28.3672 0.233336 2.58688 21.2087 -7.10543e-15 1.9e-06 41.918 -7.48094 6.73627 10.4341 -1.9e-06 -1e-06 -14.4374 15.9873 -2.76903 5.66763 6.59831 0 90.0522 0.0698071 0.539284 8.62785 0 0 2.20695e-32 7.95139e-16 -1.59028e-15 5.67412 -2.36198 0.530356 -75.808 -4.38692 -5.33418 -2.62878 -3.42545 3.14601 29.7498 -1.82753 -90.2266
26.837 59.747 146.955 111.292 -73.4138 -146.879 53.2821 -6.35e-05 8.19533 -90 -81.2558 -180 0 0 0 -89.9999 -4.1675e-14 -90 10.4409 -1.622 1.78e-05 -11.4629 1.59753 -5.86954 8.8514 -0.0089989 0 3.5497 1.5264 -12.1931 11.3035 -0.0087814 0 0.731322 -2.63151 -14.7968 11.0297 -0.0113029 0 -0.317522 2.00327 -13.9712 14.948 -3.19349 8.6e-06 -54.615 -14.0205 -42.8968 5.49578 -0.0042877 -1.42109e-14 10.0379 35.2622 -9.03855 5.52657 -0.0048637 -7.10543e-15 2.65071 5.30581 1.46798 6.10934 0 0 47.1266 -7.40112 -3.05484 28.6688 7.10543e-15 0 -1.76556e-31 -3.18055e-15 -3.18055e-15 0.607494 2.35752 -7.6e-06 -156.427 -0.000147608 180 10.4683 2.1257 3.51896 -172.963 35.1589 -74.7405 7.34534 -7.10543e-15 1.9e-06 -91.9431 -65.4766 -6.53653 23.3863 -1.9e-06 1e-06 -10.7401 -0.372018 -1.33442 21.504 -1.42109e-14 1.42109e-14 -63.707 -5.03411 3.10102 1.59262 6.21256 -0.0138378 26.7884 -14.0365 8.51053 23.3657 0 1e-06 -2.64834e-31 3.18055e-15 4.77083e-15 4.20345 4.44573 12.7354 172.377 0.21838 -87.1877 10.4683 2.12572 -3.51895 169.169 2.46514 106.531 7.34534 0 -1.9e-06 -97.1094 77.0998 5.25338 23.3863 1.9e-06 1.42109e-14 -33.1914 1.19271e-15 -3.57812e-15 21.504 3.8e-06 1e-06 -70.8577 5.2279 -0.144451 1.59262 6.21257 0.0138388 5.25391 -12.1261 1.68729 23.3657 0 1e-06 180 1.03467e-13 9.93923e-16 4.20337 4.4457 -12.7351 172.377 -0.218352 87.1876 -4.78895 3.85983 0.86083 163.735 -11.4357 -5.95608 5.0654 4.578e-05 -6.84e-06 8.71116 23.8618 9.10729 4.77605 3.648e-06 -6.432e-06 -5.01089 10.2408 -3.97571 4.52841 -1.0992e-05 2.7456e-05 3.18055e-15 -3.18055e-15 -0 9.71734 -4.2e-05 -5.72e-05 1.59028e-15 0 -3.18055e-15 8.26175 8.01e-05 5.7e-06 1.59028e-15 -3.18055e-15 -6.36111e-15 9.75986 -6.48e-05 2.86e-05 -1.76556e-31 -3.18055e-15 -3.18055e-15 11.153 2.67e-05 -2.1e-05 1.59028e-15 -6.36111e-15 -6.36111e-15 10.3039 1.14e-05 4.2e-05 1.59028e-15 -3.18055e-15 -3.18055e-15 -11.9878 -1.78568 10.19 170.606 3.62573 1.11034 8.44238 1.53e-05 4.2e-05 -7.95139e-16 -1.59028e-15 -0 9.95005 7.6e-06 -2.86e-05 -7.95139e-16 0 -0 9.43418 0 -4.58e-05 -0 -1.59028e-15 -0 9.71733 6.87e-05 0.0001106 -7.95139e-16 1.59028e-15 3.18055e-15 8.26175 -2.29e-05 -4.77e-05 -1.19271e-15 0 -3.18055e-15 9.75994 2.86e-05 3.05e-05 -3.97569e-16 -3.18055e-15 -0 11.1529 -7.25e-05 -5.91e-05 -8.82781e-32 -1.59028e-15 -3.18055e-15 10.3039 -7.6e-06 0 -1.76556e-31 -3.18055e-15 -3.18055e-15 -1.14e-05 1.53e-05 9.94222 -113.733 28.9592 -179.482 25.9795 1e-06 0 -34.0504 -0.369543 -1.15296 21.2087 1.9e-06 -1e-06 51.7314 13.4052 -18.8853 10.4341 -1.9e-06 1e-06 -3.27086 -1.90441 4.82578 5.66763 6.59832 0 99.9396 24.7373 -15.3742 8.62785 7.10543e-15 0 -180 -6.36111e-15 -0 5.67414 -2.36194 -0.530567 -75.8081 4.38708 5.33411 -2.62874 -3.42539 -3.14618 29.7499 1.82752 90.2264 1.53e-05 -1.53e-05 -9.94222 -111.624 -18.5843 174.06 25.9795 7.10543e-15 1e-06 -28.12 0.244502 2.58585 21.2087 0 1.9e-06 41.3921 -7.33674 6.89315 10.4341 -1.9e-06 -1e-06 -14.5512 16.2408 -2.62408 5.66763 6.59831 0 90.3344 0.311675 0.479342 8.62785 -3.55271e-15 0 3.18055e-15 0 1.59028e-15 5.67412 -2.36198 0.530355 -75.808 -4.38692 -5.33418 -2.62878 -3.42545 3.14601 29.7498 -1.82753 -90.2266
27.1044 59.8677 146.998 110.1 -72.3843 -147.881 53.2821 -6.35e-05 8.19533 -90 -81.2558 -180 0 0 0 -89.9999 -4.1675e-14 -90 10.4409 -1.622 1.78e-05 -11.7389 1.57505 -6.00886 8.8514 -0.0089989 0 3.59597 1.49991 -12.2342 11.3035 -0.0087814 0 0.961629 -2.36458 -14.7362 11.0297 -0.0113029 0 -0.277003 2.20217 -14.234 14.948 -3.19349 8.6e-06 -54.261 -14.6282 -43.3565 5.49578 -0.0042877 0 9.90667 35.2807 -8.20419 5.52657 -0.0048637 7.10543e-15 2.71753 5.05488 1.55095 6.10934 -1.42109e-14 -3.55271e-15 47.4333 -7.36766 -2.87608 28.6688 -3.55271e-15 3.55271e-15 6.36111e-15 -1.59028e-15 -0 0.607494 2.35752 -7.6e-06 -156.427 -0.000147608 180 10.4683 2.1257 3.51896 -172.533 35.8701 -74.2879 7.34534 7.10543e-15 1.9e-06 -92.3931 -67.1214 -6.85802 23.3863 -1.9e-06 1e-06 -11.1581 -0.36227 -1.3371 21.504 0 0 -62.6648 -4.97704 3.19195 1.59262 6.21256 -0.0138378 28.861 -18.9121 7.83182 23.3657 0 1e-06 -0 0 -1.19271e-15 4.20345 4.44573 12.7354 172.377 0.21838 -87.1877 10.4683 2.12572 -3.51895 169.542 2.41759 106.884 7.34534 -7.10543e-15 -1.9e-06 -99.6583 78.7924 7.74253 23.3863 1.9e-06 -1.42109e-14 -30.4724 1.59028e-15 -2.88238e-15 21.504 3.8e-06 1e-06 -73.0139 3.99412 -1.3093 1.59262 6.21257 0.0138388 4.67879 -11.1296 1.42048 23.3657 -3.55271e-15 1e-06 180 3.83157e-14 2.43511e-15 4.20337 4.4457 -12.7351 172.377 -0.218352 87.1876 -4.78895 3.85983 0.86083 163.918 -11.7363 -6.53591 5.0654 4.578e-05 -6.84e-06 9.65133 26.117 7.01942 4.77605 3.648e-06 -6.432e-06 -4.98718 10.3452 -4.11669 4.52841 -1.0992e-05 2.7456e-05 -0 6.36111e-15 -0 9.71734 -4.2e-05 -5.72e-05 -1.59028e-15 0 3.18055e-15 8.26175 8.01e-05 5.7e-06 -1.59028e-15 0 -1.59028e-15 9.75986 -6.48e-05 2.86e-05 2.64834e-31 3.18055e-15 -4.77083e-15 11.153 2.67e-05 -2.1e-05 -1.59028e-15 0 4.77083e-15 10.3039 1.14e-05 4.2e-05 -3.18055e-15 0 3.18055e-15 -11.9878 -1.78568 10.19 170.606 3.62573 1.11034 8.44238 1.53e-05 4.2e-05 7.95139e-16 -3.18055e-15 3.18055e-15 9.95005 7.6e-06 -2.86e-05 3.97569e-16 -3.18055e-15 3.18055e-15 9.43418 0 -4.58e-05 1.59028e-15 0 -0 9.71733 6.87e-05 0.0001106 1.19271e-15 -1.59028e-15 3.18055e-15 8.26175 -2.29e-05 -4.77e-05 7.95139e-16 0 -0 9.75994 2.86e-05 3.05e-05 -8.82781e-32 -1.59028e-15 -3.18055e-15 11.1529 -7.25e-05 -5.91e-05 1.59028e-15 0 -3.18055e-15 10.3039 -7.6e-06 0 -7.95139e-16 -1.59028e-15 -3.18055e-15 -1.14e-05 1.53e-05 9.94222 -112.759 29.946 -179.71 25.9795 1e-06 0 -33.2943 -0.384729 -1.14798 21.2087 1.9e-06 -1e-06 51.1272 13.2505 -18.9192 10.4341 -1.9e-06 1e-06 -2.93694 -1.8762 4.8368 5.66763 6.59832 -2.84217e-14 100.564 25.1174 -15.4269 8.62785 7.10543e-15 0 -180 9.54166e-15 -3.18055e-15 5.67414 -2.36194 -0.530567 -75.8081 4.38708 5.33411 -2.62874 -3.42539 -3.14618 29.7499 1.82752 90.2264 1.53e-05 -1.53e-05 -9.94222 -111.289 -18.8755 174.072 25.9795 -7.10543e-15 1e-06 -27.9014 0.254374 2.58489 21.2087 0 1.9e-06 40.9003 -7.32067 7.08699 10.4341 -1.9e-06 -1e-06 -14.6695 16.5128 -2.44585 5.66763 6.59831 -2.84217e-14 90.5941 0.704476 0.339121 8.62785 0 0 2.38542e-15 7.95139e-16 -0 5.67412 -2.36198 0.530355 -75.808 -4.38692 -5.33418 -2.62878 -3.42545 3.14601 29.7498 -1.82753 -90.2266
27.3816 59.9807 147.021 108.94 -71.3509 -148.835 53.2821 -6.35e-05 8.19533 -90 -81.2558 -180 0 0 0 -89.9999 -5.43972e-14 -90 10.4409 -1.622 1.78e-05 -11.9876 1.4996 -6.16399 8.8514 -0.0089989 0 3.62525 1.44189 -12.2578 11.3035 -0.0087814 0 1.19472 -2.01331 -14.6376 11.0297 -0.0113029 0 -0.199348 2.4986 -14.5068 14.948 -3.19349 8.6e-06 -53.7467 -15.4194 -43.8366 5.49578 -0.0042877 -1.42109e-14 9.56326 35.2513 -7.40667 5.52657 -0.0048637 0 2.75858 4.82894 1.61914 6.10934 1.42109e-14 0 47.7564 -7.32948 -2.60969 28.6688 7.10543e-15 3.55271e-15 6.36111e-15 1.59028e-15 -3.18055e-15 0.607494 2.35752 -7.6e-06 -156.427 -0.000147608 180 10.4683 2.1257 3.51896 -171.983 35.9928 -73.9966 7.34534 -1.06581e-14 1.9e-06 -93.1465 -68.9589 -6.87732 23.3863 -1.9e-06 1e-06 -11.8867 -0.345237 -1.3416 21.504 1.42109e-14 1.42109e-14 -61.2249 -4.89547 3.31586 1.59262 6.21256 -0.0138378 30.0801 -24.1913 6.96922 23.3657 -2.84217e-14 1e-06 -6.62086e-32 7.95139e-16 4.77083e-15 4.20345 4.44573 12.7354 172.377 0.21838 -87.1877 10.4683 2.12572 -3.51895 169.89 2.69996 107.366 7.34534 0 -1.9e-06 -99.3332 79.8997 7.56744 23.3863 1.9e-06 1.42109e-14 -28.2645 4.77083e-15 -9.14409e-15 21.504 3.8e-06 1e-06 -75.5911 2.81096 -3.31059 1.59262 6.21257 0.0138388 3.23302 -9.91698 1.08304 23.3657 0 1e-06 180 1.70955e-14 1.19271e-15 4.20337 4.4457 -12.7351 172.377 -0.218352 87.1876 -4.78895 3.85983 0.86083 164.03 -11.9414 -7.11954 5.0654 4.578e-05 -6.84e-06 10.6637 28.4491 4.76154 4.77605 3.648e-06 -6.432e-06 -4.96215 10.4521 -4.25843 4.52841 -1.0992e-05 2.7456e-05 -1.59028e-15 -9.54166e-15 -0 9.71734 -4.2e-05 -5.72e-05 1.59028e-15 0 -1.59028e-15 8.26175 8.01e-05 5.7e-06 -1.59028e-15 -3.18055e-15 -1.59028e-15 9.75986 -6.48e-05 2.86e-05 -8.82781e-32 -3.18055e-15 -1.59028e-15 11.153 2.67e-05 -2.1e-05 -8.82781e-32 -3.18055e-15 -1.59028e-15 10.3039 1.14e-05 4.2e-05 -2.64834e-31 -3.18055e-15 -4.77083e-15 -11.9878 -1.78568 10.19 170.606 3.62573 1.11034 8.44238 1.53e-05 4.2e-05 -0 0 -3.18055e-15 9.95005 7.6e-06 -2.86e-05 -3.97569e-16 -1.59028e-15 -3.18055e-15 9.43418 0 -4.58e-05 -1.59028e-15 -1.59028e-15 -0 9.71733 6.87e-05 0.0001106 -7.95139e-16 0 3.18055e-15 8.26175 -2.29e-05 -4.77e-05 -7.95139e-16 0 -0 9.75994 2.86e-05 3.05e-05 -7.95139e-16 1.59028e-15 3.18055e-15 11.1529 -7.25e-05 -5.91e-05 -7.95139e-16 0 -0 10.3039 -7.6e-06 -2.84217e-14 -1.19271e-15 -1.59028e-15 -3.18055e-15 -1.14e-05 1.53e-05 9.94222 -111.84 30.8036 -179.927 25.9795 1e-06 0 -32.4761 -0.401084 -1.14237 21.2087 1.9e-06 -1e-06 50.8315 13.6051 -19.0744 10.4341 -1.9e-06 1e-06 -2.86152 -1.86982 4.83926 5.66763 6.59832 2.84217e-14 101.034 25.2598 -15.1792 8.62785 7.10543e-15 0 -180 -3.18055e-15 -0 5.67414 -2.36194 -0.530567 -75.8081 4.38708 5.33411 -2.62874 -3.42539 -3.14618 29.7499 1.82752 90.2264 1.53e-05 -1.53e-05 -9.94222 -110.986 -19.1453 174.036 25.9795 -7.10543e-15 1e-06 -27.7194 0.262589 2.58407 21.2087 0 1.9e-06 40.4409 -7.47082 7.33364 10.4341 -1.9e-06 -1e-06 -14.7822 16.796 -2.25426 5.66763 6.59831 0 90.8566 1.21128 0.13279 8.62785 0 2.84217e-14 3.97569e-16 -3.97569e-16 -1.59028e-15 5.67412 -2.36198 0.530356 -75.808 -4.38692 -5.33418 -2.62878 -3.42545 3.14601 29.7498 -1.82753 -90.2266
